# This file uses centimeters as units for non-parametric coordinates.

mtllib Òóìáî÷êà.mtl
g default
v -107.478848 0.364276 -27.125933
v -107.478848 -4.203122 -27.125933
v -150.007620 -4.203122 -27.125933
v -150.007620 0.364276 -27.125933
v -107.478848 0.364276 30.160593
v -150.007620 0.364276 30.160593
v -150.007620 -4.203144 30.160593
v -107.478869 -4.203144 30.160593
vn 0.000000 0.000000 -1.000000
vn 0.000000 0.000000 -1.000000
vn 0.000000 0.000000 -1.000000
vn 0.000000 0.000000 -1.000000
vn 0.000000 0.000000 1.000000
vn 0.000000 0.000000 1.000000
vn 0.000000 0.000000 1.000000
vn 0.000000 0.000000 1.000000
vn 1.000000 0.000000 0.000000
vn 1.000000 -0.000007 0.000000
vn 1.000000 -0.000000 0.000000
vn 1.000000 -0.000007 0.000000
vn 0.000000 -1.000000 -0.000000
vn 0.000000 -1.000000 -0.000000
vn 0.000000 -1.000000 -0.000000
vn 0.000000 -1.000000 -0.000000
vn -1.000000 0.000000 0.000000
vn -1.000000 0.000000 0.000000
vn -1.000000 0.000000 0.000000
vn -1.000000 0.000000 0.000000
vn 0.000000 1.000000 0.000000
vn 0.000000 1.000000 0.000000
vn 0.000000 1.000000 0.000000
vn 0.000000 1.000000 0.000000
s 1
g Òóìáî÷êà:Cube_Cube_003_Material_002
usemtl Òóìáî÷êà:Material
f 1//1 2//2 4//3
f 4//3 2//2 3//4
s 2
f 5//5 6//6 8//7
f 8//7 6//6 7//8
s 3
f 1//9 5//10 2//11
f 2//11 5//10 8//12
s 4
f 2//13 8//14 3//15
f 3//15 8//14 7//16
s 5
f 3//17 7//18 4//19
f 4//19 7//18 6//20
s 6
f 5//21 1//22 6//23
f 6//23 1//22 4//24
g default
v -122.629120 -13.410122 29.839481
v -124.158319 -13.410122 29.839481
v -124.158319 -11.264814 29.839481
v -122.629120 -11.264814 29.839481
v -124.158319 -11.264814 32.039503
v -122.629120 -11.264814 32.039503
v -122.629120 -13.410100 32.039503
v -124.158319 -13.410100 32.039503
v -122.629120 -13.410100 34.239480
v -124.158319 -13.410100 34.239480
v -122.629120 -11.264836 34.239480
v -124.158319 -11.264836 34.239480
v -131.999423 -13.410100 34.239480
v -131.999423 -13.410100 32.039503
v -131.999423 -11.264836 34.239480
v -131.999423 -11.264814 32.039503
v -133.567677 -11.264814 32.039503
v -133.567677 -11.264836 34.239480
v -133.567677 -13.410100 34.239480
v -133.567677 -13.410100 32.039503
v -133.567677 -13.410122 29.839481
v -131.999423 -13.410122 29.839481
v -133.567677 -11.264814 29.839481
v -131.999423 -11.264814 29.839481
v -131.999423 -33.210123 29.839481
v -133.567677 -33.210123 29.839481
v -133.567677 -31.064814 29.839481
v -131.999423 -31.064814 29.839481
v -131.999423 -33.210099 32.039503
v -131.999423 -31.064814 32.039503
v -133.567677 -31.064814 32.039503
v -133.567677 -33.210099 32.039503
v -133.567677 -33.210099 34.239480
v -133.567677 -31.064814 34.239480
v -131.999423 -33.210099 34.239480
v -131.999423 -31.064814 34.239480
v -124.158319 -33.210099 32.039503
v -124.158319 -31.064814 32.039503
v -124.158319 -31.064814 34.239480
v -124.158319 -33.210099 34.239480
v -122.629120 -33.210099 34.239480
v -122.629120 -31.064814 34.239480
v -122.629120 -31.064814 32.039503
v -122.629120 -33.210099 32.039503
v -124.158319 -33.210123 29.839481
v -124.158319 -31.064814 29.839481
v -122.629120 -33.210123 29.839481
v -122.629120 -31.064814 29.839481
v -122.629120 -54.525372 29.839458
v -124.158319 -54.525372 29.839458
v -124.158319 -52.380065 29.839458
v -122.629120 -52.380065 29.839458
v -124.158319 -52.380065 32.039479
v -122.629120 -52.380065 32.039479
v -122.629120 -54.525372 32.039479
v -124.158319 -54.525372 32.039479
v -122.629120 -54.525372 34.239459
v -124.158319 -54.525372 34.239459
v -122.629120 -52.380065 34.239459
v -124.158319 -52.380065 34.239459
v -131.999423 -54.525372 34.239459
v -131.999423 -54.525372 32.039479
v -131.999423 -52.380065 34.239459
v -131.999423 -52.380065 32.039479
v -133.567677 -52.380065 32.039479
v -133.567677 -52.380065 34.239459
v -133.567677 -54.525372 34.239459
v -133.567677 -54.525372 32.039479
v -133.567677 -54.525372 29.839458
v -131.999423 -54.525372 29.839458
v -133.567677 -52.380065 29.839458
v -131.999423 -52.380065 29.839458
vn 0.000000 0.000000 -1.000000
vn 0.000000 0.000000 -1.000000
vn 0.000000 0.000000 -1.000000
vn 0.000000 0.000000 -1.000000
vn 0.000000 1.000000 0.000000
vn 0.000000 1.000000 0.000000
vn 0.000000 1.000000 0.000000
vn 0.000000 1.000000 0.000000
vn 1.000000 0.000000 0.000000
vn 1.000000 0.000000 0.000000
vn 1.000000 0.000000 0.000000
vn 1.000000 0.000000 0.000000
vn 0.000000 -1.000000 0.000011
vn 0.000000 -1.000000 0.000010
vn 0.000000 -1.000000 0.000010
vn 0.000000 -1.000000 0.000010
vn -1.000000 0.000000 0.000000
vn -1.000000 0.000000 0.000000
vn -1.000000 0.000000 0.000000
vn -1.000000 0.000000 0.000000
vn 0.000000 -1.000000 0.000000
vn 0.000000 -1.000000 0.000000
vn 0.000000 -1.000000 0.000000
vn 0.000000 -1.000000 0.000000
vn 1.000000 0.000000 0.000000
vn 1.000000 0.000000 0.000000
vn 1.000000 0.000000 0.000000
vn 1.000000 0.000000 0.000000
vn 0.000000 1.000000 0.000011
vn 0.000000 1.000000 0.000010
vn 0.000000 1.000000 0.000010
vn 0.000000 1.000000 0.000010
vn 0.000000 0.000000 1.000000
vn 0.000000 0.000000 1.000000
vn 0.000000 0.000000 1.000000
vn 0.000000 0.000000 1.000000
vn 0.000000 -1.000000 0.000000
vn 0.000000 -1.000000 0.000000
vn 0.000000 -1.000000 0.000000
vn 0.000000 -1.000000 0.000000
vn 0.000000 0.000000 1.000000
vn 0.000000 0.000000 1.000000
vn 0.000000 0.000000 1.000000
vn 0.000000 0.000000 1.000000
vn 0.000000 1.000000 0.000011
vn 0.000000 1.000000 0.000009
vn 0.000000 1.000000 0.000011
vn 0.000000 1.000000 0.000009
vn 0.000000 0.000000 -1.000000
vn 0.000000 0.000000 -1.000000
vn 0.000000 0.000000 -1.000000
vn 0.000000 0.000000 -1.000000
vn 0.000000 1.000000 0.000011
vn 0.000000 1.000000 0.000011
vn 0.000000 1.000000 0.000010
vn 0.000000 1.000000 0.000009
vn 0.000000 0.000000 1.000000
vn 0.000000 0.000000 1.000000
vn 0.000000 0.000000 1.000000
vn 0.000000 0.000000 1.000000
vn 0.000000 -1.000000 0.000000
vn 0.000000 -1.000000 0.000000
vn 0.000000 -1.000000 0.000000
vn 0.000000 -1.000000 0.000000
vn -1.000000 0.000000 0.000000
vn -1.000000 0.000000 0.000000
vn -1.000000 0.000000 0.000000
vn -1.000000 0.000000 0.000000
vn 0.000000 -1.000000 0.000009
vn 0.000000 -1.000000 0.000010
vn 0.000000 -1.000000 0.000010
vn 0.000000 -1.000000 0.000010
vn -1.000000 0.000000 0.000000
vn -1.000000 0.000000 0.000000
vn -1.000000 0.000000 0.000000
vn -1.000000 0.000000 0.000000
vn 0.000000 1.000000 0.000000
vn 0.000000 1.000000 0.000000
vn 0.000000 1.000000 0.000000
vn 0.000000 1.000000 0.000000
vn 1.000000 0.000000 0.000000
vn 1.000000 0.000000 0.000000
vn 1.000000 0.000000 0.000000
vn 1.000000 0.000000 0.000000
vn 0.000000 0.000000 -1.000000
vn 0.000000 0.000000 -1.000000
vn 0.000000 0.000000 -1.000000
vn 0.000000 0.000000 -1.000000
vn 0.000000 0.000000 -1.000000
vn 0.000000 0.000000 -1.000000
vn 0.000000 0.000000 -1.000000
vn 0.000000 0.000000 -1.000000
vn 1.000000 0.000000 0.000000
vn 1.000000 0.000000 0.000000
vn 1.000000 0.000000 0.000000
vn 1.000000 0.000000 0.000000
vn 0.000000 1.000000 0.000000
vn 0.000000 1.000000 0.000000
vn 0.000000 1.000000 0.000000
vn 0.000000 1.000000 0.000000
vn -1.000000 0.000000 0.000000
vn -1.000000 0.000000 0.000000
vn -1.000000 0.000000 0.000000
vn -1.000000 0.000000 0.000000
vn 0.000000 -1.000000 0.000013
vn 0.000000 -1.000000 0.000011
vn 0.000000 -1.000000 0.000012
vn 0.000000 -1.000000 0.000010
vn -1.000000 0.000000 0.000000
vn -1.000000 0.000000 0.000000
vn -1.000000 0.000000 0.000000
vn -1.000000 0.000000 0.000000
vn 0.000000 -1.000000 0.000000
vn 0.000000 -1.000000 0.000000
vn 0.000000 -1.000000 0.000000
vn 0.000000 -1.000000 0.000000
vn 0.000000 0.000000 1.000000
vn 0.000000 0.000000 1.000000
vn 0.000000 0.000000 1.000000
vn 0.000000 0.000000 1.000000
vn 0.000000 1.000000 0.000000
vn 0.000000 1.000000 0.000000
vn 0.000000 1.000000 0.000000
vn 0.000000 1.000000 0.000000
vn 0.000000 0.000000 -1.000000
vn 0.000000 0.000000 -1.000000
vn 0.000000 0.000000 -1.000000
vn 0.000000 0.000000 -1.000000
vn 0.000000 1.000000 0.000000
vn 0.000000 1.000000 0.000000
vn 0.000000 1.000000 0.000000
vn 0.000000 1.000000 0.000000
vn 0.000000 0.000000 1.000000
vn 0.000000 0.000000 1.000000
vn 0.000000 0.000000 1.000000
vn 0.000000 0.000000 1.000000
vn 0.000000 -1.000000 0.000000
vn 0.000000 -1.000000 0.000000
vn 0.000000 -1.000000 0.000000
vn 0.000000 -1.000000 0.000000
vn 0.000000 0.000000 1.000000
vn 0.000000 0.000000 1.000000
vn 0.000000 0.000000 1.000000
vn 0.000000 0.000000 1.000000
vn 0.000000 1.000000 0.000000
vn 0.000000 1.000000 0.000000
vn 0.000000 1.000000 0.000000
vn 0.000000 1.000000 0.000000
vn 1.000000 0.000000 0.000000
vn 1.000000 0.000000 0.000000
vn 1.000000 0.000000 0.000000
vn 1.000000 0.000000 0.000000
vn 0.000000 -1.000000 0.000000
vn 0.000000 -1.000000 0.000000
vn 0.000000 -1.000000 0.000000
vn 0.000000 -1.000000 0.000000
vn -1.000000 0.000000 0.000000
vn -1.000000 0.000000 0.000000
vn -1.000000 0.000000 0.000000
vn -1.000000 0.000000 0.000000
vn 0.000000 -1.000000 0.000009
vn 0.000000 -1.000000 0.000011
vn 0.000000 -1.000000 0.000010
vn 0.000000 -1.000000 0.000013
vn 1.000000 0.000000 0.000000
vn 1.000000 0.000000 0.000000
vn 1.000000 0.000000 0.000000
vn 1.000000 0.000000 0.000000
vn 0.000000 1.000000 0.000000
vn 0.000000 1.000000 0.000000
vn 0.000000 1.000000 0.000000
vn 0.000000 1.000000 0.000000
vn 0.000000 0.000000 -1.000000
vn 0.000000 0.000000 -1.000000
vn 0.000000 0.000000 -1.000000
vn 0.000000 0.000000 -1.000000
vn 0.000000 0.000000 -1.000000
vn 0.000000 0.000000 -1.000000
vn 0.000000 0.000000 -1.000000
vn 0.000000 0.000000 -1.000000
vn 0.000000 1.000000 0.000000
vn 0.000000 1.000000 0.000000
vn 0.000000 1.000000 0.000000
vn 0.000000 1.000000 0.000000
vn 1.000000 0.000000 0.000000
vn 1.000000 0.000000 0.000000
vn 1.000000 0.000000 0.000000
vn 1.000000 0.000000 0.000000
vn 0.000000 -1.000000 0.000000
vn 0.000000 -1.000000 0.000000
vn 0.000000 -1.000000 0.000000
vn 0.000000 -1.000000 0.000000
vn -1.000000 0.000000 0.000000
vn -1.000000 0.000000 0.000000
vn -1.000000 0.000000 0.000000
vn -1.000000 0.000000 0.000000
vn 0.000000 -1.000000 0.000000
vn 0.000000 -1.000000 0.000000
vn 0.000000 -1.000000 0.000000
vn 0.000000 -1.000000 0.000000
vn 1.000000 0.000000 0.000000
vn 1.000000 0.000000 0.000000
vn 1.000000 0.000000 0.000000
vn 1.000000 0.000000 0.000000
vn 0.000000 1.000000 0.000000
vn 0.000000 1.000000 0.000000
vn 0.000000 1.000000 0.000000
vn 0.000000 1.000000 0.000000
vn 0.000000 0.000000 1.000000
vn 0.000000 0.000000 1.000000
vn 0.000000 0.000000 1.000000
vn 0.000000 0.000000 1.000000
vn 0.000000 -1.000000 0.000000
vn 0.000000 -1.000000 0.000000
vn 0.000000 -1.000000 0.000000
vn 0.000000 -1.000000 0.000000
vn 0.000000 0.000000 1.000000
vn 0.000000 0.000000 1.000000
vn 0.000000 0.000000 1.000000
vn 0.000000 0.000000 1.000000
vn 0.000000 1.000000 0.000000
vn 0.000000 1.000000 0.000000
vn 0.000000 1.000000 0.000000
vn 0.000000 1.000000 0.000000
vn 0.000000 0.000000 -1.000000
vn 0.000000 0.000000 -1.000000
vn 0.000000 0.000000 -1.000000
vn 0.000000 0.000000 -1.000000
vn 0.000000 1.000000 0.000000
vn 0.000000 1.000000 0.000000
vn 0.000000 1.000000 0.000000
vn 0.000000 1.000000 0.000000
vn 0.000000 0.000000 1.000000
vn 0.000000 0.000000 1.000000
vn 0.000000 0.000000 1.000000
vn 0.000000 0.000000 1.000000
vn 0.000000 -1.000000 0.000000
vn 0.000000 -1.000000 0.000000
vn 0.000000 -1.000000 0.000000
vn 0.000000 -1.000000 0.000000
vn -1.000000 0.000000 0.000000
vn -1.000000 0.000000 0.000000
vn -1.000000 0.000000 0.000000
vn -1.000000 0.000000 0.000000
vn 0.000000 -1.000000 0.000000
vn 0.000000 -1.000000 0.000000
vn 0.000000 -1.000000 0.000000
vn 0.000000 -1.000000 0.000000
vn -1.000000 0.000000 0.000000
vn -1.000000 0.000000 0.000000
vn -1.000000 0.000000 0.000000
vn -1.000000 0.000000 0.000000
vn 0.000000 1.000000 0.000000
vn 0.000000 1.000000 0.000000
vn 0.000000 1.000000 0.000000
vn 0.000000 1.000000 0.000000
vn 1.000000 0.000000 0.000000
vn 1.000000 0.000000 0.000000
vn 1.000000 0.000000 0.000000
vn 1.000000 0.000000 0.000000
vn 0.000000 0.000000 -1.000000
vn 0.000000 0.000000 -1.000000
vn 0.000000 0.000000 -1.000000
vn 0.000000 0.000000 -1.000000
s 1
g Òóìáî÷êà:Cube_002_Cube_002_Aluminum_001
usemtl Òóìáî÷êà:Aluminum
f 9//25 10//26 12//27
f 12//27 10//26 11//28
s 2
f 11//29 13//30 12//31
f 12//31 13//30 14//32
s 3
f 15//33 9//34 14//35
f 14//35 9//34 12//36
s 4
f 9//37 15//38 10//39
f 10//39 15//38 16//40
s 5
f 10//41 16//42 11//43
f 11//43 16//42 13//44
s 6
f 15//45 17//46 16//47
f 16//47 17//46 18//48
s 7
f 14//49 19//50 15//51
f 15//51 19//50 17//52
s 8
f 13//53 20//54 14//55
f 14//55 20//54 19//56
s 9
f 17//57 19//58 18//59
f 18//59 19//58 20//60
s 10
f 18//61 21//62 16//63
f 16//63 21//62 22//64
s 11
f 20//65 23//66 18//67
f 18//67 23//66 21//68
s 12
f 13//69 24//70 20//71
f 20//71 24//70 23//72
s 13
f 16//73 22//74 13//75
f 13//75 22//74 24//76
s 14
f 24//77 25//78 23//79
f 23//79 25//78 26//80
s 15
f 23//81 26//82 21//83
f 21//83 26//82 27//84
s 16
f 21//85 27//86 22//87
f 22//87 27//86 28//88
s 17
f 28//89 27//90 25//91
f 25//91 27//90 26//92
s 18
f 28//93 29//94 22//95
f 22//95 29//94 30//96
s 19
f 25//97 31//98 28//99
f 28//99 31//98 29//100
s 20
f 24//101 32//102 25//103
f 25//103 32//102 31//104
s 21
f 22//105 30//106 24//107
f 24//107 30//106 32//108
s 22
f 30//109 29//110 32//111
f 32//111 29//110 31//112
s 23
f 33//113 34//114 36//115
f 36//115 34//114 35//116
s 24
f 37//117 33//118 38//119
f 38//119 33//118 36//120
s 25
f 38//121 36//122 39//123
f 39//123 36//122 35//124
s 26
f 39//125 35//126 40//127
f 40//127 35//126 34//128
s 27
f 40//129 34//130 37//131
f 37//131 34//130 33//132
s 28
f 40//133 41//134 39//135
f 39//135 41//134 42//136
s 29
f 43//137 41//138 37//139
f 37//139 41//138 40//140
s 30
f 44//141 42//142 43//143
f 43//143 42//142 41//144
s 31
f 38//145 39//146 44//147
f 44//147 39//146 42//148
s 32
f 45//149 37//150 46//151
f 46//151 37//150 38//152
s 33
f 46//153 38//154 47//155
f 47//155 38//154 44//156
s 34
f 47//157 44//158 48//159
f 48//159 44//158 43//160
s 35
f 48//161 43//162 45//163
f 45//163 43//162 37//164
s 36
f 49//165 50//166 48//167
f 48//167 50//166 47//168
s 37
f 46//169 47//170 51//171
f 51//171 47//170 50//172
s 38
f 51//173 50//174 52//175
f 52//175 50//174 49//176
s 39
f 52//177 49//178 45//179
f 45//179 49//178 48//180
s 40
f 53//181 45//182 54//183
f 54//183 45//182 46//184
s 41
f 55//185 52//186 53//187
f 53//187 52//186 45//188
s 42
f 52//189 55//190 51//191
f 51//191 55//190 56//192
s 43
f 54//193 46//194 56//195
f 56//195 46//194 51//196
s 44
f 55//197 53//198 56//199
f 56//199 53//198 54//200
s 45
f 57//201 58//202 60//203
f 60//203 58//202 59//204
s 46
f 59//205 61//206 60//207
f 60//207 61//206 62//208
s 47
f 63//209 57//210 62//211
f 62//211 57//210 60//212
s 48
f 57//213 63//214 58//215
f 58//215 63//214 64//216
s 49
f 58//217 64//218 59//219
f 59//219 64//218 61//220
s 50
f 63//221 65//222 64//223
f 64//223 65//222 66//224
s 51
f 62//225 67//226 63//227
f 63//227 67//226 65//228
s 52
f 61//229 68//230 62//231
f 62//231 68//230 67//232
s 53
f 65//233 67//234 66//235
f 66//235 67//234 68//236
s 54
f 66//237 69//238 64//239
f 64//239 69//238 70//240
s 55
f 68//241 71//242 66//243
f 66//243 71//242 69//244
s 56
f 61//245 72//246 68//247
f 68//247 72//246 71//248
s 57
f 64//249 70//250 61//251
f 61//251 70//250 72//252
s 58
f 72//253 73//254 71//255
f 71//255 73//254 74//256
s 59
f 71//257 74//258 69//259
f 69//259 74//258 75//260
s 60
f 69//261 75//262 70//263
f 70//263 75//262 76//264
s 61
f 76//265 75//266 73//267
f 73//267 75//266 74//268
s 62
f 76//269 77//270 70//271
f 70//271 77//270 78//272
s 63
f 73//273 79//274 76//275
f 76//275 79//274 77//276
s 64
f 72//277 80//278 73//279
f 73//279 80//278 79//280
s 65
f 70//281 78//282 72//283
f 72//283 78//282 80//284
s 66
f 78//285 77//286 80//287
f 80//287 77//286 79//288
g default
v -108.570943 -65.937498 23.558590
v -108.570943 -65.937498 25.758567
v -149.080183 -65.937498 25.758567
v -149.080183 -65.937498 23.558569
v -108.570922 -4.265250 23.558611
v -149.080183 -4.265250 23.558590
v -149.080183 -4.265250 25.758591
v -108.570943 -4.265250 25.758612
v -107.517894 -65.937498 25.758591
v -107.517894 -4.265250 25.758612
v -107.517894 -4.265250 23.558611
v -107.517894 -65.937498 23.558590
v -150.044683 -4.265250 25.758567
v -150.044683 -65.937498 25.758546
v -150.044683 -4.265250 23.558590
v -150.044683 -65.937498 23.558569
v -149.080078 -4.265228 -27.041409
v -150.044599 -4.265228 -27.041432
v -150.044599 -65.937498 -27.041432
v -149.080078 -65.937498 -27.041432
v -108.570838 -65.937477 -27.041432
v -107.517789 -65.937477 -27.041432
v -107.517789 -4.265228 -27.041388
v -108.570817 -4.265228 -27.041409
v -149.965931 -4.659380 30.181647
v -107.527660 -4.659380 30.181647
v -107.527660 -4.659380 25.781625
v -149.965931 -4.659380 25.781646
v -149.965931 -23.422013 30.181647
v -107.527660 -23.421992 30.181647
v -149.965931 -23.422013 25.781646
v -107.527660 -23.422013 25.781646
v -149.965931 -44.044485 30.181647
v -149.965931 -25.110624 30.181647
v -149.965931 -25.110624 25.781646
v -149.965931 -44.044485 25.781646
v -107.527660 -25.110624 25.781625
v -107.527660 -25.110624 30.181647
v -107.527660 -44.044464 30.181647
v -107.527660 -44.044485 25.781646
v -149.965931 -46.007016 30.181647
v -107.527660 -46.007016 30.181647
v -107.527660 -46.007058 25.781646
v -149.965931 -46.007016 25.781646
v -149.965931 -64.940898 30.181623
v -107.527660 -64.940898 30.181623
v -149.965931 -64.940898 25.781625
v -107.527660 -64.940919 25.781625
vn 0.000000 -1.000000 0.000000
vn 0.000000 -1.000000 0.000000
vn 0.000000 -1.000000 0.000000
vn 0.000000 -1.000000 0.000000
vn 0.000000 1.000000 0.000000
vn 0.000000 1.000000 0.000000
vn 0.000000 1.000000 0.000000
vn 0.000000 1.000000 0.000000
vn 0.000000 -0.000001 1.000000
vn -0.000000 -0.000001 1.000000
vn -0.000000 -0.000001 1.000000
vn -0.000001 -0.000000 1.000000
vn 0.000001 0.000000 -1.000000
vn 0.000000 0.000000 -1.000000
vn 0.000001 0.000000 -1.000000
vn 0.000000 0.000000 -1.000000
vn 0.000000 -0.000001 1.000000
vn -0.000021 -0.000000 1.000000
vn -0.000000 -0.000001 1.000000
vn -0.000021 -0.000000 1.000000
vn 0.000000 1.000000 0.000000
vn 0.000000 1.000000 0.000000
vn 0.000000 1.000000 0.000000
vn 0.000000 1.000000 0.000000
vn 0.000000 -1.000000 0.000000
vn 0.000000 -1.000000 0.000000
vn 0.000000 -1.000000 0.000000
vn 0.000000 -1.000000 0.000000
vn 1.000000 -0.000000 0.000000
vn 1.000000 0.000000 0.000000
vn 1.000000 -0.000000 0.000000
vn 1.000000 0.000000 0.000000
vn -0.000019 -0.000000 1.000000
vn -0.000027 -0.000000 1.000000
vn -0.000019 -0.000000 1.000000
vn -0.000027 -0.000000 1.000000
vn 0.000000 1.000000 0.000000
vn 0.000000 1.000000 0.000000
vn 0.000000 1.000000 0.000000
vn 0.000000 1.000000 0.000000
vn 0.000000 -1.000000 0.000000
vn 0.000000 -1.000000 0.000000
vn 0.000000 -1.000000 0.000000
vn 0.000000 -1.000000 0.000000
vn -1.000000 0.000000 0.000000
vn -1.000000 -0.000000 0.000000
vn -1.000000 -0.000000 0.000000
vn -1.000000 -0.000000 0.000000
vn 0.000000 1.000000 0.000000
vn -0.000000 1.000000 0.000000
vn -0.000000 1.000000 0.000000
vn -0.000000 1.000000 0.000000
vn -1.000000 0.000000 -0.000002
vn -1.000000 0.000000 -0.000002
vn -1.000000 0.000000 -0.000002
vn -1.000000 0.000000 -0.000002
vn 0.000000 -1.000000 0.000000
vn 0.000000 -1.000000 0.000000
vn 0.000000 -1.000000 -0.000000
vn 0.000000 -1.000000 -0.000000
vn 1.000000 0.000000 0.000002
vn 1.000000 -0.000000 0.000002
vn 1.000000 -0.000000 0.000002
vn 1.000000 -0.000000 0.000002
vn 0.000019 0.000000 -1.000000
vn 0.000000 0.000000 -1.000000
vn 0.000019 0.000000 -1.000000
vn 0.000000 0.000000 -1.000000
vn 0.000000 -1.000000 -0.000000
vn 0.000000 -1.000000 -0.000000
vn 0.000000 -1.000000 -0.000001
vn 0.000000 -1.000000 -0.000001
vn 1.000000 0.000000 0.000002
vn 1.000000 -0.000000 0.000002
vn 1.000000 -0.000000 0.000002
vn 1.000000 -0.000000 0.000002
vn 0.000000 1.000000 0.000000
vn -0.000000 1.000000 0.000000
vn -0.000000 1.000000 0.000000
vn -0.000000 1.000000 0.000000
vn -1.000000 0.000000 -0.000002
vn -1.000000 0.000000 -0.000002
vn -1.000000 0.000000 -0.000002
vn -1.000000 0.000000 -0.000002
vn 0.000000 0.000000 -1.000000
vn 0.000021 0.000001 -1.000000
vn 0.000000 0.000000 -1.000000
vn 0.000021 0.000001 -1.000000
vn 0.000000 1.000000 0.000000
vn 0.000000 1.000000 0.000000
vn 0.000000 1.000000 0.000000
vn 0.000000 1.000000 0.000000
vn 0.000000 0.000000 1.000000
vn 0.000000 0.000000 1.000000
vn 0.000000 0.000000 1.000000
vn 0.000000 0.000000 1.000000
vn 0.000000 -1.000000 0.000000
vn 0.000000 -1.000000 0.000005
vn 0.000000 -1.000000 0.000000
vn 0.000000 -1.000000 0.000005
vn -0.000000 0.000000 -1.000000
vn -0.000000 -0.000001 -1.000000
vn -0.000000 -0.000000 -1.000000
vn 0.000000 -0.000001 -1.000000
vn 1.000000 0.000001 0.000000
vn 1.000000 0.000000 0.000000
vn 1.000000 0.000000 0.000000
vn 1.000000 0.000000 0.000000
vn -1.000000 0.000000 0.000000
vn -1.000000 0.000000 0.000000
vn -1.000000 0.000000 0.000000
vn -1.000000 0.000000 0.000000
vn -1.000000 0.000000 0.000000
vn -1.000000 0.000000 0.000000
vn -1.000000 0.000000 0.000000
vn -1.000000 0.000000 0.000000
vn 1.000000 0.000001 0.000000
vn 1.000000 0.000000 0.000000
vn 1.000000 0.000000 0.000000
vn 1.000000 0.000000 0.000000
vn -0.000000 0.000000 -1.000000
vn -0.000000 -0.000001 -1.000000
vn -0.000000 -0.000000 -1.000000
vn 0.000000 -0.000001 -1.000000
vn 0.000000 -1.000000 0.000000
vn 0.000000 -1.000000 0.000005
vn 0.000000 -1.000000 0.000000
vn 0.000000 -1.000000 0.000005
vn 0.000000 0.000000 1.000000
vn 0.000000 0.000000 1.000000
vn 0.000000 0.000000 1.000000
vn 0.000000 0.000000 1.000000
vn 0.000000 1.000000 0.000000
vn 0.000000 1.000000 0.000000
vn 0.000000 1.000000 0.000000
vn 0.000000 1.000000 0.000000
vn 0.000000 1.000000 0.000000
vn 0.000001 1.000000 -0.000009
vn 0.000000 1.000000 -0.000001
vn 0.000001 1.000000 -0.000010
vn 0.000000 -0.000001 1.000000
vn 0.000000 -0.000001 1.000000
vn 0.000000 -0.000001 1.000000
vn 0.000000 -0.000001 1.000000
vn -0.000000 -1.000000 0.000000
vn -0.000000 -1.000000 0.000005
vn -0.000000 -1.000000 0.000000
vn 0.000000 -1.000000 0.000005
vn 0.000000 0.000001 -1.000000
vn -0.000000 0.000001 -1.000000
vn 0.000000 0.000001 -1.000000
vn -0.000000 0.000001 -1.000000
vn 1.000000 -0.000001 0.000000
vn 1.000000 -0.000000 0.000000
vn 1.000000 -0.000000 0.000000
vn 1.000000 0.000000 0.000000
vn -1.000000 0.000000 0.000000
vn -1.000000 -0.000001 0.000000
vn -1.000000 -0.000000 0.000000
vn -1.000000 -0.000001 0.000000
s 1
g Òóìáî÷êà:Cube_002_Cube_002_WoodCherry
usemtl Òóìáî÷êà:Wood_Cherry
f 81//289 82//290 84//291
f 84//291 82//290 83//292
s 2
f 85//293 86//294 88//295
f 88//295 86//294 87//296
s 3
f 82//297 88//298 83//299
f 83//299 88//298 87//300
s 4
f 85//301 81//302 86//303
f 86//303 81//302 84//304
s 5
f 88//305 82//306 90//307
f 90//307 82//306 89//308
s 6
f 85//309 88//310 91//311
f 91//311 88//310 90//312
s 7
f 82//313 81//314 89//315
f 89//315 81//314 92//316
s 8
f 92//317 91//318 89//319
f 89//319 91//318 90//320
s 9
f 83//321 87//322 94//323
f 94//323 87//322 93//324
s 10
f 87//325 86//326 93//327
f 93//327 86//326 95//328
s 11
f 84//329 83//330 96//331
f 96//331 83//330 94//332
s 12
f 94//333 93//334 96//335
f 96//335 93//334 95//336
s 13
f 95//337 86//338 98//339
f 98//339 86//338 97//340
s 14
f 96//341 95//342 99//343
f 99//343 95//342 98//344
s 15
f 84//345 96//346 100//347
f 100//347 96//346 99//348
s 16
f 86//349 84//350 97//351
f 97//351 84//350 100//352
s 17
f 97//353 100//354 98//355
f 98//355 100//354 99//356
s 18
f 92//357 81//358 102//359
f 102//359 81//358 101//360
s 19
f 91//361 92//362 103//363
f 103//363 92//362 102//364
s 20
f 85//365 91//366 104//367
f 104//367 91//366 103//368
s 21
f 81//369 85//370 101//371
f 101//371 85//370 104//372
s 22
f 101//373 104//374 102//375
f 102//375 104//374 103//376
s 23
f 105//377 106//378 108//379
f 108//379 106//378 107//380
s 24
f 109//381 110//382 105//383
f 105//383 110//382 106//384
s 25
f 111//385 112//386 109//387
f 109//387 112//386 110//388
s 26
f 108//389 107//390 111//391
f 111//391 107//390 112//392
s 27
f 107//393 106//394 112//395
f 112//395 106//394 110//396
s 28
f 109//397 105//398 111//399
f 111//399 105//398 108//400
s 29
f 113//401 114//402 116//403
f 116//403 114//402 115//404
s 30
f 117//405 118//406 120//407
f 120//407 118//406 119//408
s 31
f 115//409 117//410 116//411
f 116//411 117//410 120//412
s 32
f 116//413 120//414 113//415
f 113//415 120//414 119//416
s 33
f 113//417 119//418 114//419
f 114//419 119//418 118//420
s 34
f 114//421 118//422 115//423
f 115//423 118//422 117//424
s 35
f 121//425 122//426 124//427
f 124//427 122//426 123//428
s 36
f 125//429 126//430 121//431
f 121//431 126//430 122//432
s 37
f 127//433 128//434 125//435
f 125//435 128//434 126//436
s 38
f 124//437 123//438 127//439
f 127//439 123//438 128//440
s 39
f 123//441 122//442 128//443
f 128//443 122//442 126//444
s 40
f 125//445 121//446 127//447
f 127//447 121//446 124//448
